#!OML:ASF H:\Dans Jumps\Project 1\Capture day 1\Session 1\subject.ASF
:FULLY-SPECIFIED
:DEGREES
82
root 0.650454 17.483 -13.6292 5.62743 -1.42023 -1.99404
lowerback -2.88644 0.0481204 0.587323
upperback 1.13317 -0.00178378 1.59486
thorax 2.78241 -0.00525225 1.30918
lowerneck -15.3245 -0.173516 -2.12535
upperneck 17.3443 0.0602784 1.04354
head 7.88697 -0.00907356 0.702898
rclavicle -1.98785e-016 2.98177e-015
rhumerus -24.5267 -15.4907 -80.2552
rradius 24.3715
rwrist 33.0705
rhand -18.5942 -25.7331
rfingers 7.12502
rthumb 7.69686 -55.573
lclavicle -1.98785e-016 2.98177e-015
lhumerus -22.7715 1.60133 87.1503
lradius 17.505
lwrist 1.26896
lhand -24.1748 -2.66108
lfingers 7.12502
lthumb 2.3085 27.3062
rfemur -11.1061 -3.34839 20.5248
rtibia 21.5941
rfoot -15.2876 -2.46461
rtoes 9.01943
lfemur -10.5932 6.92556 -17.6087
ltibia 20.6613
lfoot -12.4837 8.07722
ltoes -6.023
83
root 0.651475 17.4829 -13.6301 5.62954 -1.43458 -1.99961
lowerback -2.86811 0.0472427 0.594311
upperback 1.13653 -0.00306864 1.59739
thorax 2.77557 -0.00579225 1.30777
lowerneck -15.3249 -0.174509 -2.14322
upperneck 17.3782 0.0608225 1.05497
head 7.89826 -0.00903729 0.709836
rclavicle 2.06239e-015 -7.15625e-015
rhumerus -24.5006 -15.4184 -80.2841
rradius 24.4237
rwrist 32.9934
rhand -18.5672 -25.7448
rfingers 7.12502
rthumb 7.72293 -55.5838
lclavicle 2.06239e-015 -7.15625e-015
lhumerus -22.7499 1.60494 87.1483
lradius 17.5177
lwrist 1.30128
lhand -24.1481 -2.61522
lfingers 7.12502
lthumb 2.33431 27.3518
rfemur -11.1195 -3.33853 20.5273
rtibia 21.6047
rfoot -15.2818 -2.45696
rtoes 9.0221
lfemur -10.607 6.92688 -17.6078
ltibia 20.6804
lfoot -12.4843 8.09091
ltoes -6.01377
84
root 0.652522 17.4827 -13.6311 5.63078 -1.44961 -2.0042
lowerback -2.84894 0.0464126 0.600696
upperback 1.14358 -0.00430309 1.59953
thorax 2.77207 -0.00632371 1.30629
lowerneck -15.3399 -0.174974 -2.16418
upperneck 17.4233 0.0623753 1.07022
head 7.91589 -0.00837748 0.718738
rclavicle 1.56543e-015 -8.74653e-015
rhumerus -24.4652 -15.3492 -80.314
rradius 24.4764
rwrist 32.9139
rhand -18.5374 -25.7597
rfingers 7.12502
rthumb 7.75165 -55.5977
lclavicle 1.56543e-015 -8.74653e-015
lhumerus -22.7225 1.59612 87.1497
lradius 17.5368
lwrist 1.35125
lhand -24.1147 -2.55803
lfingers 7.12502
lthumb 2.36661 27.4086
rfemur -11.1356 -3.32925 20.5286
rtibia 21.6193
rfoot -15.2764 -2.44813
rtoes 9.0258
lfemur -10.6227 6.92986 -17.6081
ltibia 20.703
lfoot -12.4843 8.10472
ltoes -6.00829
85
root 0.653557 17.4825 -13.6325 5.63272 -1.46574 -2.00904
lowerback -2.82814 0.0459271 0.607487
upperback 1.15189 -0.00507693 1.60129
thorax 2.76892 -0.00661714 1.30423
lowerneck -15.3587 -0.173586 -2.18259
upperneck 17.4714 0.0662354 1.08402
head 7.93513 -0.00660663 0.727023
rclavicle 4.77083e-015 -1.98785e-015
rhumerus -24.4263 -15.279 -80.3452
rradius 24.5321
rwrist 32.8341
rhand -18.5111 -25.7791
rfingers 7.12502
rthumb 7.77702 -55.6161
lclavicle 4.77083e-015 -1.98785e-015
lhumerus -22.6947 1.57422 87.1546
lradius 17.566
lwrist 1.41869
lhand -24.0721 -2.47592
lfingers 7.12502
lthumb 2.40769 27.4902
rfemur -11.1561 -3.32121 20.5304
rtibia 21.6387
rfoot -15.2725 -2.43572
rtoes 9.03905
lfemur -10.6425 6.93352 -17.6081
ltibia 20.7298
lfoot -12.483 8.11815
ltoes -6.00606
86
root 0.654598 17.4822 -13.6344 5.63538 -1.48231 -2.01382
lowerback -2.80452 0.0456847 0.614751
upperback 1.16141 -0.00549824 1.60232
thorax 2.76543 -0.00672103 1.30116
lowerneck -15.3788 -0.169736 -2.19611
upperneck 17.5165 0.0728029 1.09554
head 7.95355 -0.00343483 0.734047
rclavicle 4.19933e-015 2.10712e-014
rhumerus -24.3833 -15.2092 -80.3778
rradius 24.5889
rwrist 32.7575
rhand -18.4914 -25.7917
rfingers 7.12502
rthumb 7.79609 -55.628
lclavicle 4.19933e-015 2.10712e-014
lhumerus -22.6673 1.53123 87.1646
lradius 17.6071
lwrist 1.51033
lhand -24.031 -2.37816
lfingers 7.12502
lthumb 2.44739 27.5875
rfemur -11.182 -3.3127 20.5322
rtibia 21.6637
rfoot -15.2685 -2.42305
rtoes 9.05649
lfemur -10.6676 6.93753 -17.6085
ltibia 20.7619
lfoot -12.48 8.13137
ltoes -6.0048
87
root 0.655664 17.4818 -13.6367 5.64057 -1.49988 -2.01871
lowerback -2.77849 0.0458803 0.622992
upperback 1.17072 -0.00530024 1.60235
thorax 2.76035 -0.00648728 1.29654
lowerneck -15.3995 -0.161779 -2.19578
upperneck 17.5585 0.083862 1.09639
head 7.97101 0.0017424 0.735739
rclavicle 3.15571e-015 -8.15017e-015
rhumerus -24.3378 -15.1408 -80.4118
rradius 24.647
rwrist 32.6843
rhand -18.4798 -25.8021
rfingers 7.12502
rthumb 7.80721 -55.6379
lclavicle 3.15571e-015 -8.15017e-015
lhumerus -22.643 1.46278 87.181
lradius 17.6613
lwrist 1.63294
lhand -23.9911 -2.26306
lfingers 7.12502
lthumb 2.48599 27.7022
rfemur -11.2159 -3.30579 20.5343
rtibia 21.6953
rfoot -15.2653 -2.40667
rtoes 9.07479
lfemur -10.7001 6.93979 -17.6093
ltibia 20.8001
lfoot -12.4773 8.14649
ltoes -5.99474
88
root 0.656717 17.4815 -13.6395 5.64862 -1.51694 -2.0244
lowerback -2.74758 0.0463811 0.632245
upperback 1.17888 -0.00463151 1.60246
thorax 2.75134 -0.00599656 1.29145
lowerneck -15.4125 -0.153673 -2.19169
upperneck 17.593 0.0947752 1.0937
head 7.9846 0.00676939 0.735575
rclavicle 3.97569e-015 -1.17283e-014
rhumerus -24.2937 -15.0672 -80.4466
rradius 24.7124
rwrist 32.6077
rhand -18.4753 -25.8051
rfingers 7.12502
rthumb 7.81158 -55.6408
lclavicle 3.97569e-015 -1.17283e-014
lhumerus -22.6223 1.36837 87.2045
lradius 17.7267
lwrist 1.78526
lhand -23.9544 -2.14633
lfingers 7.12502
lthumb 2.5214 27.8185
rfemur -11.2589 -3.29658 20.5375
rtibia 21.7349
rfoot -15.2628 -2.39096
rtoes 9.0941
lfemur -10.7418 6.9425 -17.6099
ltibia 20.8457
lfoot -12.4742 8.16126
ltoes -5.99144
89
root 0.657857 17.481 -13.6428 5.65952 -1.53612 -2.02856
lowerback -2.713 0.0465016 0.640035
upperback 1.18627 -0.00434559 1.60304
thorax 2.73947 -0.00572431 1.28762
lowerneck -15.4154 -0.144143 -2.1847
upperneck 17.6189 0.107775 1.08584
head 7.99354 0.0124837 0.733396
rclavicle -5.98839e-015 1.94809e-014
rhumerus -24.247 -14.9918 -80.4802
rradius 24.7766
rwrist 32.5377
rhand -18.4806 -25.7947
rfingers 7.12502
rthumb 7.80651 -55.6306
lclavicle -5.98839e-015 1.94809e-014
lhumerus -22.6068 1.25507 87.2349
lradius 17.8056
lwrist 1.96231
lhand -23.9208 -2.02463
lfingers 7.12502
lthumb 2.55381 27.9398
rfemur -11.3123 -3.28775 20.5389
rtibia 21.7836
rfoot -15.2617 -2.37193
rtoes 9.10958
lfemur -10.7927 6.94654 -17.6136
ltibia 20.8998
lfoot -12.4719 8.17897
ltoes -6.00117
90
root 0.659142 17.4804 -13.6468 5.67519 -1.55863 -2.03028
lowerback -2.67383 0.0474917 0.647333
upperback 1.19212 -0.00273642 1.60229
thorax 2.72341 -0.00478374 1.28276
lowerneck -15.4111 -0.135072 -2.17832
upperneck 17.641 0.120151 1.07789
head 7.99992 0.0178577 0.731185
rclavicle 1.3418e-015 -3.37934e-015
rhumerus -24.1977 -14.9189 -80.514
rradius 24.841
rwrist 32.468
rhand -18.4897 -25.7761
rfingers 7.12502
rthumb 7.79775 -55.6123
lclavicle 1.3418e-015 -3.37934e-015
lhumerus -22.5944 1.12181 87.2697
lradius 17.8972
lwrist 2.16244
lhand -23.8847 -1.89484
lfingers 7.12502
lthumb 2.5887 28.0692
rfemur -11.3799 -3.27801 20.5371
rtibia 21.8429
rfoot -15.2593 -2.35027
rtoes 9.10386
lfemur -10.8562 6.95108 -17.622
ltibia 20.9636
lfoot -12.4694 8.2013
ltoes -6.02489
91
root 0.660629 17.4796 -13.6514 5.69519 -1.582 -2.03002
lowerback -2.63137 0.0478853 0.653666
upperback 1.19772 -0.00183742 1.60216
thorax 2.70525 -0.00421945 1.27902
lowerneck -15.401 -0.125666 -2.1761
upperneck 17.6601 0.133755 1.07049
head 8.00426 0.0235896 0.72996
rclavicle 1.26725e-015 -7.95139e-016
rhumerus -24.1444 -14.843 -80.5464
rradius 24.9057
rwrist 32.3978
rhand -18.5086 -25.7517
rfingers 7.12502
rthumb 7.77946 -55.5886
lclavicle 1.26725e-015 -7.95139e-016
lhumerus -22.5845 0.976067 87.3087
lradius 18.002
lwrist 2.37751
lhand -23.8486 -1.77186
lfingers 7.12502
lthumb 2.62355 28.1918
rfemur -11.4617 -3.27021 20.5328
rtibia 21.9141
rfoot -15.2573 -2.32589
rtoes 9.08646
lfemur -10.9329 6.95773 -17.6346
ltibia 21.0385
lfoot -12.4682 8.2234
ltoes -6.05676
92
root 0.662361 17.4785 -13.6567 5.71936 -1.60857 -2.02623
lowerback -2.58478 0.0485947 0.658425
upperback 1.20455 -0.000386189 1.60128
thorax 2.68602 -0.0034027 1.27542
lowerneck -15.399 -0.115504 -2.1745
upperneck 17.6853 0.148854 1.0625
head 8.01207 0.0299101 0.72885
rclavicle 6.95746e-015 -3.37934e-015
rhumerus -24.0831 -14.7648 -80.58
rradius 24.9723
rwrist 32.3195
rhand -18.5268 -25.7306
rfingers 7.12502
rthumb 7.7619 -55.5681
lclavicle 6.95746e-015 -3.37934e-015
lhumerus -22.5739 0.818015 87.3504
lradius 18.1208
lwrist 2.60728
lhand -23.8035 -1.63475
lfingers 7.12502
lthumb 2.66709 28.3283
rfemur -11.5592 -3.26086 20.5239
rtibia 21.9985
rfoot -15.254 -2.30152
rtoes 9.04718
lfemur -11.0244 6.96604 -17.6533
ltibia 21.1268
lfoot -12.4687 8.24867
ltoes -6.09354
